<svg xmlns="http://www.w3.org/2000/svg" xmlns:xlink="http://www.w3.org/1999/xlink" width="500" zoomAndPan="magnify" viewBox="0 0 375 374.999991" height="500" preserveAspectRatio="xMidYMid meet" version="1.0"><defs><g/><clipPath id="45d10e3e4a"><path d="M 4.164062 21.808594 L 370.914062 21.808594 L 370.914062 353.308594 L 4.164062 353.308594 Z M 4.164062 21.808594 " clip-rule="nonzero"/></clipPath><clipPath id="c759a89fcd"><path d="M 114.566406 114.566406 L 260.433594 114.566406 L 260.433594 260.433594 L 114.566406 260.433594 Z M 114.566406 114.566406 " clip-rule="nonzero"/></clipPath><clipPath id="ac591eda19"><path d="M 187.5 114.566406 C 147.21875 114.566406 114.566406 147.21875 114.566406 187.5 C 114.566406 227.78125 147.21875 260.433594 187.5 260.433594 C 227.78125 260.433594 260.433594 227.78125 260.433594 187.5 C 260.433594 147.21875 227.78125 114.566406 187.5 114.566406 Z M 187.5 114.566406 " clip-rule="nonzero"/></clipPath><clipPath id="9fc86fb289"><path d="M 0.566406 0.566406 L 146.433594 0.566406 L 146.433594 146.433594 L 0.566406 146.433594 Z M 0.566406 0.566406 " clip-rule="nonzero"/></clipPath><clipPath id="73ed2ab9bd"><path d="M 73.5 0.566406 C 33.21875 0.566406 0.566406 33.21875 0.566406 73.5 C 0.566406 113.78125 33.21875 146.433594 73.5 146.433594 C 113.78125 146.433594 146.433594 113.78125 146.433594 73.5 C 146.433594 33.21875 113.78125 0.566406 73.5 0.566406 Z M 73.5 0.566406 " clip-rule="nonzero"/></clipPath><clipPath id="09f373f07d"><rect x="0" width="147" y="0" height="147"/></clipPath><clipPath id="6f645868e6"><rect x="0" width="119" y="0" height="160"/></clipPath></defs><g clip-path="url(#45d10e3e4a)"><path fill="#737373" d="M 270.625 186.09375 C 287.183594 186.09375 303.742188 186.054688 320.304688 186.140625 C 322.40625 186.152344 323.171875 185.59375 323.796875 183.472656 C 327.167969 172.007812 337.929688 165.203125 349.921875 166.667969 C 361.085938 168.035156 370.03125 177.75 370.792969 189.335938 C 371.539062 200.636719 364.078125 210.808594 352.90625 213.722656 C 341.671875 216.65625 329.4375 211.167969 324.925781 200.546875 C 323.433594 197.027344 321.648438 196.425781 318.222656 196.441406 C 285.890625 196.582031 253.558594 196.550781 221.226562 196.484375 C 218.871094 196.480469 217.628906 196.828125 217.386719 199.539062 C 217.03125 203.503906 215.402344 207.148438 213.347656 210.539062 C 212.582031 211.800781 212.863281 212.429688 213.839844 213.371094 C 231.75 230.636719 249.621094 247.945312 267.5 265.246094 C 268.601562 266.3125 269.285156 267.421875 271.28125 265.945312 C 281.273438 258.554688 295.546875 260.5625 303.074219 270.175781 C 310.660156 279.855469 309.34375 293.386719 300.015625 301.648438 C 291.089844 309.554688 276.515625 308.902344 268.0625 300.128906 C 261.808594 293.640625 259.976562 285.980469 262.574219 277.355469 C 263.039062 275.808594 262.859375 274.929688 261.660156 273.78125 C 243.371094 256.277344 225.125 238.722656 206.9375 221.113281 C 205.71875 219.933594 204.992188 219.941406 203.757812 220.898438 C 199.671875 224.0625 195.035156 226.101562 189.957031 226.96875 C 188.382812 227.238281 187.972656 227.78125 187.984375 229.285156 C 188.035156 236.117188 187.96875 242.953125 187.96875 249.789062 C 187.96875 268.539062 187.996094 287.289062 187.960938 306.039062 C 187.957031 307.703125 188.261719 308.605469 190.082031 309.257812 C 200.71875 313.054688 206.703125 323.675781 204.667969 334.769531 C 202.75 345.238281 193.375 353.085938 182.722656 353.140625 C 171.640625 353.199219 162.136719 345.351562 160.167969 334.515625 C 158.183594 323.585938 164.203125 313.019531 174.824219 309.289062 C 176.894531 308.5625 177.382812 307.695312 177.378906 305.660156 C 177.316406 280.425781 177.320312 255.191406 177.414062 229.957031 C 177.421875 227.867188 176.871094 227.21875 174.816406 226.859375 C 169.738281 225.976562 165.121094 223.78125 161.136719 220.53125 C 159.558594 219.246094 158.832031 219.601562 157.574219 220.835938 C 139.726562 238.292969 121.839844 255.714844 103.910156 273.085938 C 102.515625 274.433594 102.320312 275.535156 102.914062 277.367188 C 106.113281 287.210938 101.921875 298.242188 93.109375 303.652344 C 83.964844 309.265625 71.960938 308.050781 64.445312 300.75 C 56.980469 293.5 55.242188 282.027344 60.273438 273.230469 C 66.921875 261.609375 81.894531 257.871094 93.039062 265.21875 C 95.09375 266.570312 96.132812 266.5625 97.945312 264.773438 C 115.546875 247.4375 133.253906 230.207031 150.992188 213.011719 C 152.175781 211.867188 152.328125 211.074219 151.519531 209.722656 C 149.472656 206.308594 148.082031 202.597656 147.644531 198.652344 C 147.425781 196.707031 146.574219 196.492188 144.964844 196.511719 C 139.269531 196.574219 133.574219 196.515625 127.878906 196.515625 C 103.257812 196.515625 78.636719 196.542969 54.015625 196.476562 C 52.054688 196.46875 51.1875 197.003906 50.449219 198.894531 C 46.4375 209.160156 37.339844 215 26.660156 214.398438 C 16.421875 213.824219 7.691406 206.679688 4.964844 196.648438 C 1.578125 184.171875 9.078125 170.960938 21.605469 167.335938 C 33.914062 163.773438 46.886719 170.824219 50.648438 183.328125 C 51.332031 185.601562 52.253906 186.171875 54.570312 186.164062 C 84.449219 186.070312 114.324219 186.070312 144.203125 186.171875 C 146.683594 186.179688 147.710938 185.515625 148.132812 183.0625 C 148.65625 180.039062 150 177.234375 151.554688 174.582031 C 152.21875 173.449219 152.226562 172.730469 151.164062 171.710938 C 133.085938 154.367188 115.046875 136.976562 97.042969 119.550781 C 95.875 118.417969 95.171875 118.390625 93.824219 119.34375 C 82.59375 127.289062 67.578125 124.46875 60.117188 113.101562 C 52.433594 101.394531 55.773438 85.710938 67.46875 78.558594 C 79.253906 71.355469 94.402344 75.21875 101.105469 87.296875 C 104.640625 93.664062 105.136719 100.460938 102.777344 107.355469 C 102.191406 109.074219 102.347656 110.101562 103.710938 111.414062 C 121.8125 128.863281 139.851562 146.375 157.855469 163.925781 C 159.140625 165.175781 159.886719 165.480469 161.421875 164.1875 C 165.511719 160.738281 170.355469 158.691406 175.601562 157.75 C 177.121094 157.472656 177.34375 156.816406 177.34375 155.5 C 177.308594 126.496094 177.285156 97.496094 177.335938 68.492188 C 177.339844 66.8125 176.476562 66.554688 175.253906 66.109375 C 159.339844 60.265625 154.738281 40.964844 166.324219 28.789062 C 172.398438 22.402344 182.441406 20.113281 190.53125 23.265625 C 199.167969 26.628906 204.960938 34.925781 205.148438 44.199219 C 205.335938 53.207031 200.148438 61.890625 191.984375 65.152344 C 188.757812 66.441406 187.886719 68.03125 187.902344 71.371094 C 188.046875 99.058594 188.003906 126.746094 187.941406 154.433594 C 187.9375 156.609375 188.363281 157.617188 190.789062 158 C 195.695312 158.777344 200.167969 160.894531 204.007812 164.058594 C 205.496094 165.285156 206.21875 164.929688 207.390625 163.78125 C 224.621094 146.941406 241.8125 130.0625 259.222656 113.410156 C 262.109375 110.648438 263 108.527344 261.980469 104.402344 C 258.734375 91.238281 267.882812 77.832031 281.164062 75.320312 C 294.425781 72.816406 307.109375 81.714844 309.585938 95.261719 C 311.976562 108.359375 302.925781 121.242188 289.757812 123.570312 C 282.992188 124.769531 276.832031 123.273438 271.378906 119.273438 C 269.65625 118.011719 268.832031 118.3125 267.523438 119.597656 C 252.183594 134.609375 236.804688 149.582031 221.429688 164.554688 C 218.980469 166.941406 216.546875 169.339844 214.019531 171.636719 C 213.066406 172.503906 212.890625 173.175781 213.566406 174.3125 C 215.453125 177.492188 216.855469 180.898438 217.460938 184.558594 C 217.757812 186.367188 218.949219 186.136719 220.15625 186.136719 C 236.980469 186.136719 253.800781 186.136719 270.625 186.136719 C 270.625 186.121094 270.625 186.109375 270.625 186.09375 Z M 182.816406 212.046875 C 193.757812 211.988281 202.691406 203.179688 202.675781 192.464844 C 202.65625 181.597656 193.5625 172.601562 182.675781 172.671875 C 171.628906 172.746094 162.53125 181.6875 162.601562 192.394531 C 162.675781 203.078125 171.960938 212.109375 182.816406 212.046875 Z M 285.300781 113.675781 C 293.203125 113.734375 299.808594 107.3125 299.882812 99.496094 C 299.957031 91.816406 293.488281 85.214844 285.789062 85.113281 C 278.148438 85.007812 271.640625 91.503906 271.570312 99.308594 C 271.5 107.039062 277.789062 113.621094 285.300781 113.675781 Z M 80.253906 113.621094 C 87.839844 113.5625 94.136719 107.128906 94.179688 99.386719 C 94.222656 91.589844 87.726562 85.003906 80.058594 85.078125 C 72.382812 85.152344 65.90625 91.773438 65.96875 99.480469 C 66.03125 107.296875 72.476562 113.679688 80.253906 113.621094 Z M 346.589844 176.617188 C 339.125 176.632812 332.839844 183.023438 332.804688 190.628906 C 332.769531 198.117188 339.164062 204.367188 346.820312 204.332031 C 354.425781 204.296875 360.527344 198.246094 360.574219 190.699219 C 360.621094 183.050781 354.210938 176.597656 346.589844 176.617188 Z M 14.375 190.539062 C 14.355469 198.011719 20.542969 204.246094 28.054688 204.328125 C 35.457031 204.40625 41.738281 198.09375 41.753906 190.566406 C 41.765625 182.914062 35.542969 176.640625 27.929688 176.640625 C 20.570312 176.636719 14.390625 182.976562 14.375 190.539062 Z M 80.792969 297.109375 C 87.855469 297.070312 93.789062 291.179688 93.714844 284.273438 C 93.644531 277.472656 87.539062 271.589844 80.550781 271.589844 C 73.6875 271.589844 67.722656 277.441406 67.679688 284.210938 C 67.636719 291.292969 73.59375 297.152344 80.792969 297.109375 Z M 284.746094 271.71875 C 277.757812 271.683594 271.972656 277.359375 271.929688 284.296875 C 271.886719 291.355469 277.667969 297.109375 284.800781 297.105469 C 291.804688 297.105469 297.695312 291.367188 297.703125 284.535156 C 297.710938 277.53125 291.867188 271.753906 284.746094 271.71875 Z M 194.746094 44.636719 C 194.773438 37.917969 189.152344 32.121094 182.546875 32.0625 C 176.023438 32.003906 170.167969 37.800781 170.066406 44.421875 C 169.960938 51.132812 175.84375 57.183594 182.445312 57.148438 C 189.070312 57.113281 194.71875 51.367188 194.746094 44.636719 Z M 182.09375 342.914062 C 188.699219 343.089844 194.558594 337.398438 194.679688 330.695312 C 194.796875 324.113281 189.300781 318.308594 182.746094 318.089844 C 176.0625 317.863281 170.242188 323.398438 170.054688 330.160156 C 169.867188 336.84375 175.429688 342.738281 182.09375 342.914062 Z M 182.09375 342.914062 " fill-opacity="1" fill-rule="evenodd"/></g><path fill="#737373" d="M 182.5 204.042969 C 176.015625 204.011719 170.734375 198.785156 170.734375 192.402344 C 170.738281 185.921875 176.128906 180.738281 182.789062 180.8125 C 189.320312 180.886719 194.570312 186.054688 194.582031 192.425781 C 194.59375 198.832031 189.136719 204.078125 182.5 204.042969 Z M 182.5 204.042969 " fill-opacity="1" fill-rule="evenodd"/><g clip-path="url(#c759a89fcd)"><g clip-path="url(#ac591eda19)"><g transform="matrix(1, 0, 0, 1, 114, 114)"><g clip-path="url(#09f373f07d)"><g clip-path="url(#9fc86fb289)"><g clip-path="url(#73ed2ab9bd)"><path fill="#000000" d="M 0.566406 0.566406 L 146.433594 0.566406 L 146.433594 146.433594 L 0.566406 146.433594 Z M 0.566406 0.566406 " fill-opacity="1" fill-rule="nonzero"/></g></g></g></g></g></g><g transform="matrix(1, 0, 0, 1, 135, 118)"><g clip-path="url(#6f645868e6)"><g fill="#ffffff" fill-opacity="1"><g transform="translate(0.765083, 115.374893)"><g><path d="M 9.796875 -101.671875 C 12.429688 -104.304688 15.570312 -105.625 19.21875 -105.625 C 22.863281 -105.625 26 -104.304688 28.625 -101.671875 C 31.257812 -99.046875 32.578125 -95.90625 32.578125 -92.25 C 32.578125 -88.601562 31.257812 -85.460938 28.625 -82.828125 C 26 -80.203125 22.863281 -78.890625 19.21875 -78.890625 C 15.570312 -78.890625 12.429688 -80.203125 9.796875 -82.828125 C 7.171875 -85.460938 5.859375 -88.601562 5.859375 -92.25 C 5.859375 -95.90625 7.171875 -99.046875 9.796875 -101.671875 Z M 7.640625 -65.28125 L 7.640625 0 L 30.15625 0 L 30.15625 -65.28125 Z M 7.640625 -65.28125 "/></g></g></g><g fill="#ffffff" fill-opacity="1"><g transform="translate(32.832802, 115.374893)"><g><path d="M 74.8125 -57.125 C 80.925781 -50.425781 83.984375 -42.238281 83.984375 -32.5625 C 83.984375 -22.894531 80.925781 -14.734375 74.8125 -8.078125 C 68.707031 -1.421875 60.945312 1.90625 51.53125 1.90625 C 42.882812 1.90625 35.757812 -1.1875 30.15625 -7.375 L 29.90625 -7.375 L 29.90625 0 L 7.640625 0 L 7.640625 -109.4375 L 30.15625 -109.4375 L 30.15625 -59.046875 C 35.757812 -64.472656 42.882812 -67.1875 51.53125 -67.1875 C 60.945312 -67.1875 68.707031 -63.832031 74.8125 -57.125 Z M 55.859375 -21.5625 C 58.660156 -24.40625 60.0625 -28.070312 60.0625 -32.5625 C 60.0625 -37.0625 58.597656 -40.753906 55.671875 -43.640625 C 52.742188 -46.523438 49.117188 -47.96875 44.796875 -47.96875 C 40.546875 -47.96875 36.957031 -46.523438 34.03125 -43.640625 C 31.113281 -40.753906 29.65625 -37.066406 29.65625 -32.578125 C 29.65625 -28.160156 31.070312 -24.507812 33.90625 -21.625 C 36.75 -18.75 40.378906 -17.3125 44.796875 -17.3125 C 49.367188 -17.3125 53.054688 -18.726562 55.859375 -21.5625 Z M 55.859375 -21.5625 "/></g></g></g></g></g></svg>